# xmcd CD database file
#
# Track frame offsets:
#	150
#	12626
#	22650
#	39096
#	53266
#	63985
#	75393
#	92084
#	106571
#	127111
#	139231
#	151872
#	165038
#	177282
#	197801
#	210015
#	221654
#	230864
#
# Disc length: 3231 seconds
#
# Revision: 2
# Processed by: cddbd v1.5.2PL0 Copyright (c) Steve Scherf et al.
# Submitted via: Feurio! 1.68 - http://www.feurio.com
#
DISCID=d40c9d12
DTITLE=Various Artist - A Girl Named Johnny Cash - Tribute Songs
DYEAR=2010
DGENRE=country
TTITLE0=Gordon Terry - The Ballad Of J.C.
TTITLE1=Stoney Edwards - The Night The Ernest Tubb Show Came To Town
TTITLE2=Merle Haggard - Leonard
TTITLE3=Stoney Edwards - The Carter Family
TTITLE4=Stoney Edwards - Cash
TTITLE5=Jane Morgan - A Girl Named Johnny Cash
TTITLE6=Stoney Edwards - Roy Acuff, The King Of Country Music
TTITLE7=Ernest Tubb - Hank It Will Never Be The Same Without You
TTITLE8=Stoney Edwards - The Jimmie Rodgers Blues
TTITLE9=Merle Haggard - Goodbye Lefty
TTITLE10=Stoney Edwards - Bob Wills, The Fiddlin' Man
TTITLE11=Stoney Edwards - Hag Sang Me A Song
TTITLE12=Rudy Thacker - The Ballad Of Johnny Horton
TTITLE13=Stoney Edwards - Red Foley
TTITLE14=Charlie Rich - Gentleman Jim
TTITLE15=Stoney Edwards - Bill Monroe - Daddy Bluegrass
TTITLE16=Stoney Edwards - Johnny's Cash And Charley's Pride
TTITLE17=Mac Wiseman - Hank And Lefty Rauised My Country Soul
EXTD=
EXTT0=
EXTT1=
EXTT2=
EXTT3=
EXTT4=
EXTT5=
EXTT6=
EXTT7=
EXTT8=
EXTT9=
EXTT10=
EXTT11=
EXTT12=
EXTT13=
EXTT14=
EXTT15=
EXTT16=
EXTT17=
PLAYORDER=
